<?xml version="1.0" standalone="no"?>
<!DOCTYPE svg PUBLIC "-//W3C//DTD SVG 20010904//EN"
 "http://www.w3.org/TR/2001/REC-SVG-20010904/DTD/svg10.dtd">
<svg version="1.0" xmlns="http://www.w3.org/2000/svg"
 width="512.000000pt" height="512.000000pt" viewBox="0 0 512.000000 512.000000"
 preserveAspectRatio="xMidYMid meet">
<metadata>
Created by potrace 1.14, written by Peter Selinger 2001-2017
</metadata>
<g transform="translate(0.000000,512.000000) scale(0.100000,-0.100000)"
fill="#000000" stroke="none">
<path d="M1863 5105 c-139 -31 -270 -125 -353 -254 -19 -29 -35 -56 -36 -60 0
-3 -6 -18 -12 -34 -7 -15 -14 -39 -16 -52 -3 -14 -8 -30 -13 -37 -4 -7 -8
-159 -9 -338 -1 -179 -3 -330 -3 -336 -1 -7 -144 -10 -463 -10 -255 1 -469 -3
-475 -8 -7 -4 -22 -6 -33 -3 -11 3 -20 1 -20 -5 0 -5 -5 -8 -12 -6 -26 9 -183
-79 -238 -134 -64 -63 -100 -108 -100 -124 0 -7 -4 -14 -8 -16 -13 -5 -49 -98
-62 -158 -13 -63 -10 -3032 3 -3085 20 -79 61 -169 90 -200 6 -7 19 -23 27
-35 21 -32 107 -110 121 -110 4 0 14 -6 21 -13 7 -7 33 -22 58 -33 113 -52 -6
-49 2225 -49 1144 0 2098 4 2120 8 83 18 175 65 240 121 22 20 44 36 48 36 5
0 5 4 2 10 -3 5 -2 10 4 10 13 0 63 73 96 138 56 111 54 61 55 1677 0 1441 -1
1492 -19 1557 -11 37 -23 73 -27 80 -5 7 -9 19 -10 26 -2 8 -10 22 -18 31 -9
10 -16 22 -16 27 0 14 -125 144 -138 144 -7 0 -12 4 -12 8 0 15 -128 72 -199
90 -61 15 -128 17 -526 16 -320 0 -455 3 -456 10 0 6 -2 155 -4 331 -2 176 -5
327 -7 335 -3 8 -10 35 -17 60 -7 25 -19 55 -27 68 -8 12 -12 22 -8 22 11 0
-70 105 -118 153 -26 26 -50 47 -53 47 -4 0 -25 13 -48 28 -44 29 -86 49 -124
57 -13 3 -33 8 -45 12 -13 4 -315 8 -673 9 -522 2 -662 0 -712 -11z m799 -560
c5 -7 8 -7 8 0 0 15 492 9 538 -6 21 -6 49 -20 65 -31 15 -11 27 -17 27 -14 0
11 65 -68 81 -99 29 -52 32 -94 30 -350 l-1 -61 -850 0 -850 -1 -1 26 c-3 82
0 285 5 315 7 40 44 116 57 116 5 0 9 6 9 13 0 11 45 45 100 75 14 8 52 17 85
20 97 11 689 8 697 -3z"/>
</g>
</svg>
